<?xml version="1.0" encoding="UTF-8"?>
<!DOCTYPE svg PUBLIC "-//W3C//DTD SVG 1.1//EN" "http://www.w3.org/Graphics/SVG/1.1/DTD/svg11.dtd">
<!-- Creator: CorelDRAW 2018 (64 Bit Versão de avaliação) -->
<svg xmlns="http://www.w3.org/2000/svg" xml:space="preserve" width="77.506mm" height="66.2835mm" version="1.1" style="shape-rendering:geometricPrecision; text-rendering:geometricPrecision; image-rendering:optimizeQuality; fill-rule:evenodd; clip-rule:evenodd"
viewBox="0 0 3859.21 3300.41"
 xmlns:xlink="http://www.w3.org/1999/xlink">
 <defs>
  <style type="text/css">
   <![CDATA[
    .fil0 {fill:#381C0F}
   ]]>
  </style>
 </defs>
 <g id="Camada_x0020_1">
  <metadata id="CorelCorpID_0Corel-Layer"/>
  <g id="_1759164845952">
   <path class="fil0" d="M2028.49 2929.9c78.58,-53.81 570.62,-211.53 696.49,-256.43l142.18 -50.71c3.04,-1.13 6.44,-2.45 9.53,-3.62l19.54 -8.13c63.99,-23.81 116.85,-43.19 175.9,-62.99 93.75,-31.44 267.3,-109.8 355.29,-120.28l-1.61 72.1 -802.89 311.13c-2.09,-2.17 -4.7,-5.66 -6.06,-6.72l-35.78 -19.35c28.79,-29.65 99.17,-56.7 111.66,-56.74 -70.66,-2.68 -255.23,72.93 -314.7,102.79 89.47,0.19 81.31,-50.61 170.57,-9.44 -16.07,19.59 5,7.7 -32,29.88l-217.84 84.55c-76.65,29.65 -193.69,84.02 -274.48,94.17l4.2 -100.21zm-1300.31 -567.68c59.02,7.58 1212.9,526.45 1267.18,567.67l0.9 111.61c-75.48,-16.25 -1229.68,-564.25 -1268.5,-598.41l0.42 -80.87zm533.28 -318.15c112.44,17.22 54.77,124.13 165.84,129.96 79.23,4.16 102.52,-83.64 125.02,-141.36 22.74,-58.3 53.3,-167.87 139.14,-121.21 67.51,36.68 14.28,74.07 159.75,116.48 22.85,100.54 19.76,231.21 34.41,337.88 37.92,276.32 118.12,96.61 107.63,249.34 -45.84,-11.01 -746.54,-304.28 -778.17,-329.96 4.09,-81.3 21.81,-173.78 46.37,-241.12zm-533.77 -74.65c16.47,-42.36 15.83,-21.42 47.14,-57.95 70.57,-82.35 53.5,-171.09 150.21,-169.61 70.72,93.71 32.04,306.45 33.62,433.36 -71.9,-12.48 -169.78,-59.26 -230.77,-86.73l-0.2 -119.07zm2236.21 -289.45c-3.22,-62.54 3.56,-84.02 25.41,-120 76.69,8.79 55.66,37.26 110.2,51.2 52.35,13.36 82.1,-8.03 131.02,-11.87 92.83,237.44 84.83,33.92 111.53,243.63 15.83,124.4 23.82,201.38 45.19,311.9l-1359.61 460.7c-6.7,-117.83 35.47,-50.25 64.53,-148.71 32.29,-109.37 13.81,-337.37 11.47,-457.92 -1.95,-99.99 -11.39,-172.79 45.46,-216.92 63.03,17.3 27.8,14.48 72.47,52.55 24.05,20.49 46.36,25.82 85.36,32.25 16.28,97.2 17.83,216.9 74.7,281.24 64,72.43 167.22,73.95 225.88,6.61 85.4,-98.04 39.49,-321.01 45.76,-472.17 3.34,-80.46 19.75,-93.75 100.64,-78.52 50.79,141.98 -46.6,342.84 6.35,510.54 50.57,160.15 230.83,146.71 218.76,-115.66l-15.13 -328.85zm-1225.29 -623.48c79.95,-31.52 58.36,-28.48 152.04,-8.86l13.73 176.71 -71.62 -17.79c65.14,112.1 -64.52,331.27 -131.15,368.96 -39.26,-37.79 -62.72,-101.21 -82.09,-156.83 -51.44,-147.72 -25.8,-142.3 -1.62,-179.9l-89.73 14c6.43,-100.37 27.65,-129.05 60.3,-196.71l120.63 8.22 -67.79 95.28c98.12,-33.63 34.09,-6.54 56.98,7.26 -5.26,66.43 5.25,162.02 7.89,201.24l8.26 -112.86c26.91,10.2 19.78,-2.92 33.84,23.31 -1.44,-82.25 -16.84,-120.78 -9.66,-222.02zm923.81 -127.45c10.26,-21.25 -21.18,-27.01 93.03,-54.22 -37.86,-17.18 -82.03,-15.88 -93.51,-52.48 16.87,-22.05 47.83,-28.62 91.03,-23.78 44.95,5.04 64.71,21.95 84.74,39.34 -34.66,73.39 -121.23,90.49 -182.72,134.95 3.78,16.79 23.84,50.26 7.76,65.5 -9.8,9.32 -107.58,31.19 -160.6,-29.4 97.83,-101.09 97.9,-83.93 160.27,-79.91zm-1671.32 -92.8c117.46,-15.8 129.78,-30.64 172.42,12.24l-15.47 -102.28c144.96,-12.02 172.29,-26.67 218.7,161.98 -82.67,3.29 -92.4,4.34 -152.21,-26.75 -3.49,1.99 -7.37,5.1 -10.1,6.56l-31.49 15.94c-17.53,5.54 -31.62,4.83 -50.23,6.2 -40.29,2.95 -53.38,5.75 -91.55,10.23 63.31,18.79 131.61,14.23 209.77,14.96 9.95,17.19 12.58,20.3 13.22,30.26l131.56 -37.96c32.61,23.21 79.86,59.98 99.12,94.48 -76.11,84.74 -218.91,86.21 -324.15,81.98l12.99 -120.69c-43.61,58.6 -124.01,33.26 -205.78,-2.93 -62.81,-27.79 -122.86,-57.96 -150,-105.99 45.35,-16.4 118.13,-30.83 173.22,-38.25zm1784.7 128.84c51.56,-33.78 121.58,-77.08 133.7,-140.33 -48.95,-48.25 -113.5,-62.24 -176.09,-83.18l-21.07 -9.39 27.35 -79.4c92.49,15.83 202.98,58.85 298.01,85.59 3.48,0.99 6.95,1.87 10.44,2.82 87.22,23.59 404.15,81.73 419.99,177.26l-8.29 59.05c-38.45,40.86 -34.98,14.83 -77.38,41.55 -27.1,17.09 -30.32,40.87 -49.16,74.34l-87.71 -12.84c-70.44,77.64 -23.79,108.95 -50.78,209.65 -36.29,-7.75 -70.96,-23.3 -78.21,-63.44 -0.73,-4 -3.33,-4.95 -5.36,-7.09 14.07,50.66 23.26,86.27 90.24,88.13 42.63,-63.55 13.57,-118.85 41.04,-199.62l97.48 11.74c66.37,-81.74 -14.61,-80.38 132.33,-119.86 0.13,69.48 -3.62,147.7 2.58,216.17 6.52,72.06 26.39,110.21 22.87,194.35l-32.93 -33.41c-2.08,-2.72 -3.73,-5.96 -5.62,-8.71 -21.09,-30.5 -39.68,-76.62 -81.03,-39.38 -32.29,29.06 -15.88,97.99 -13.18,147.76 -60.76,-21.89 -10.17,16.74 -50.32,-42.7 -3.88,-5.76 -15.13,-29.81 -22.24,-40.44 -105.08,-7.19 -58.42,36.14 -143.07,68.93 -64,-9.27 -87.93,-37.01 -109.92,-80.82 6.6,22.69 4.7,23.02 34.75,57.46 86.64,99.26 107.08,-4.39 193.62,-25.4 53.55,44.64 21.75,100.89 117.34,87.42l-2.87 -166.94c102.24,8.14 91.46,81.39 67.33,156.67 -50.85,158.56 127.09,459.66 46.7,601.55 -22.75,40.14 -1.86,10.99 -31.08,29.18 -27.05,-16.43 -14.75,-3.65 -29.86,-30.7 -19.83,-35.52 -15.41,-90.32 -19.52,-130.92 -23.73,-234.25 -1.99,-193.87 -90.21,-298.88 -31.23,-37.18 -29.43,-73.72 -72.55,-121.88 -71.5,-6.43 -81.91,16.97 -128.76,10.33 -41.71,-5.92 -208.55,-159.1 -220.79,90.15 -7.3,148.32 18.35,278.99 11.98,422.28 -2.88,64.79 -1.68,73.42 -42.59,98.83 -27.88,-10.01 -18.96,-4.06 -36.28,-22.14 -25.32,-26.41 -27.39,-64.55 -23.27,-103.08l31.28 62.75c0.29,-53.9 -8.22,-122.81 -16.14,-179.86 -10.6,-76.31 1.48,-71.73 3.42,-79.2 4.67,-18.09 34.63,-331.5 -136.27,-295.87 -220.14,45.89 -12.53,421.55 -147.64,599.35 -197.66,19.06 -140.41,-120.9 -177.75,-265.94 -24.82,-96.35 -61.82,-36.43 -126.02,-95.43 -36.15,-33.22 -62.5,-82.69 -130.83,-44.87 -117.91,65.26 -60.56,444.25 -64.2,588.23 -1.57,62.17 3.32,140.92 -58.13,160.01 -61.87,-62.49 -50.54,-213.72 -59.05,-314.37 -21.9,-259 -34.08,-152.91 -133.88,-231.26 -39.7,-31.17 -115.85,-179.46 -229.44,-64.38 -56.19,56.92 -69.18,203.2 -143.58,233.46 -40.96,-23.66 -38.63,-42.15 -66.17,-86.3l40.04 -7c35.42,-11.29 41.34,-39.72 47.43,-78.28l-29.88 63.21c-74.9,-16.25 -204.95,-163.83 -251.48,47.65 35.96,-45.55 60.96,-115.1 142.67,-80.61l-59.91 24.01c-117.07,52.79 -53.56,268.06 -125.43,349.88 -224.17,-13.95 13.89,-562.04 -173.22,-659.06 -84.58,-43.86 -140.42,46.37 -173.97,110.61 -36.81,70.48 -15.07,69.97 -81.05,91.58 -17.4,-74.74 5.51,-217.84 -16.64,-272.75 -24.45,-60.68 -35.26,-14.49 -36.88,-114.64 -4.91,-303.27 -15.51,-378.02 149.13,-541.7 98.89,35.12 141.28,103.69 296.04,119.87l-2.9 73.93c144.01,66.55 304.53,-20.88 409.19,-38.25 -19.7,93.2 -32.68,115.22 -19.6,233.96 69.97,47.16 44.39,-34.95 81.08,64.36 32.45,87.83 64.34,196.33 134.78,254.01 80.53,-19.42 163.54,-145.14 196.64,-258.09 34.84,-118.89 65.57,-64.62 82.21,-138.11 16.77,-74.05 -2.4,-142 -9.02,-210.03 105.62,-1.46 159.14,-28.24 230.32,-66.13 54.62,19.67 74.5,50.74 144.74,55.54 123.8,8.44 60.37,-13.04 169.1,30.71 42.43,17.06 233.05,44.25 240.53,-28.15 5.65,-54.7 -29.03,-42.96 32.84,-83.51zm-469.23 -548.48c-8.12,56.36 13.45,30.85 -43.43,44.19 9.62,-60.33 -17.51,-37.85 43.43,-44.19zm-546.05 -350.6c135.09,-40.59 240.83,79.97 299.79,150.57 146.91,175.87 113.28,245.94 134.21,300.23 31.64,82.08 50.91,81.89 47.26,189.91 -7.74,228.85 -149.69,329.48 -395.36,264.79 -91.48,-24.07 -181.02,95.04 -351.58,-31.26 -88.36,-65.43 -142.87,-183 -115.54,-330.16 40.49,-218.18 204.96,-491.11 381.23,-544.07zm904.71 456.12c23.15,45.75 43.03,0.13 20.71,99.14 -35.17,156.17 -194.83,458.92 -446.46,324.37 25.12,-113.53 107.58,-168.63 37.96,-436.67 31.91,-38.76 56.7,-23.4 54.4,-118.1 -104.04,-5.82 -103.01,37.09 -126.3,-88.22 99.91,-30.8 231.44,-71.67 364.62,-46.61 67.4,12.69 99.88,41.58 117.26,98.64 6.88,22.63 14.71,79.96 12.82,103.04 -6.73,82.23 12.08,36.82 -35.01,64.4zm-1355.53 160.53c-44.48,-1.56 -203.64,-9.88 -237.52,25.94 -15.66,16.57 -2.25,1.3 -13.09,25.07l-15.59 36.79c-96.18,6.54 -263.32,35.01 -324.13,80.61 3.42,44.22 7.02,28.85 23.82,70.06 -195.35,158.18 -153.72,294.15 -160.88,508.87 -5.94,177.88 -1.89,121.79 32.08,192.63 26.7,55.69 5.23,147.93 9.93,215.82 6.69,96.65 42.15,56.25 41.73,183.39 -0.49,149.45 -6.28,313.4 0.49,460.73 36.38,30.7 130.25,68.51 178.74,90.77l60.01 46.93 -149.33 12.3c173.91,20.83 281.84,3.31 345.78,78.35l-879.81 1.12c100.8,-1.19 362.54,19.78 505.67,19.31 481.61,-1.56 302.87,-57.26 609.43,74.88 65.4,28.2 50.62,24.17 69.38,50.92l-849.92 14.54c210.8,4.25 842.98,-16.75 956.8,12.99 -29.86,28.55 -13.74,30.43 -114.45,26.05 -170.88,-7.44 -367.48,3.9 -538.18,9.07l406.58 12.18c117.7,-0.31 261.18,-18.24 361.99,7.38 -62.13,53.53 -136.54,-4.22 -242.66,38.56l156.85 15.05c98.04,5.58 163.37,-43.06 222.82,27.28l-522.98 5.48c108.53,7.84 218.14,22.16 326.72,17.36 112.26,-0.32 210.55,-13.65 307.99,15.56 -48.48,41.31 -284.08,18.58 -347.22,15.38 -320.27,-16.26 -853.03,-1.6 -1170.24,2.73 238.51,54.91 1528.89,-14.92 1592.36,22.27 -14.21,9.16 -1.6,7.63 -28.66,12.57l-289.41 7.31c89.84,35.47 680.86,36.18 765.89,-0.31l-346.86 -6.39c14.75,-26.1 5.7,-16.35 36.64,-30.87 169.4,-79.53 234.37,-37.52 427.17,-38.1 88.14,-0.27 203.85,6.87 276.61,-17.51l-486.07 -4.98c-25.21,-4.96 -15.71,-4.03 -28.73,-12.17 52.12,-21.82 336.62,-24.66 430.14,-31.36l-264.09 -18.31c60.03,-53.75 84.6,-30.49 203.77,-27.87l648.23 -3.5c-211.47,-10.43 -372.6,-24.75 -582.4,-16.77 -148.4,5.64 -101.85,-1.04 -127.49,-25.66 283.19,-62.55 831.75,42.6 1113.35,-27.31l-980.87 -4.31c34.82,-40.36 81.54,-43.71 141.12,-67.72 266.96,-107.61 258.03,-51.92 617.28,-54.25l316.99 -4.38c-102.22,-40.04 -553.47,-17.71 -704.3,-15.84 69.7,-73.32 228.54,-72.57 341.09,-76.1l-84.09 -9.43c-41.69,-9.78 -15.62,-3.8 -29.17,-11.62l168.86 -74.46c1.48,-79.51 -19.19,-311.52 19.26,-359.94 113.51,-142.96 70.73,-300.26 12.9,-504.24 -55.98,-197.4 19.31,-182.96 41.26,-265.84l-24.71 -334.91c0,-290.61 -42.21,-262.3 -284.14,-338.67 -147.53,-46.58 -355.4,-114.99 -492.11,-142.38 6.58,-188.14 12.26,-338.16 -147.21,-389.44 -190.1,-61.11 -298.92,20.6 -457.53,46.82 -94.61,-183.92 -317.02,-361.54 -548.49,-165.56 -138.99,117.69 -280.72,350.65 -297.37,597.15z"/>
   <path class="fil0" d="M2629.95 1280.71c-46.72,47.04 -31.53,67.84 -67.71,111.54 -58.77,-8.21 -194.64,-178.05 -218.94,44.23 -3.04,27.74 -0.74,46.97 -2,72.52l-21.11 71.88c-92.09,-37.99 -54.36,-132.77 -120.19,-227.41 -60.16,1.79 -47.65,1.14 -56.88,19.57 32.47,-24.22 28.26,-15.32 64.69,-3.06 23.22,86.61 24.9,232.94 125.56,236.25 38.53,-39.14 33.91,-47.32 34.92,-109.87 1.03,-62.71 -11.35,-154.66 69.08,-145.39 23.23,2.67 25.37,7.97 43.41,23.9 77.68,68.57 93.3,50.75 130.05,-35.32 32.79,-76.84 71.27,-18.35 148.43,-39.3 36.49,-9.91 63.91,-35.56 94.47,-48.91 -146.16,59.92 -78.49,24.27 -223.78,29.36z"/>
   <path class="fil0" d="M784.76 1540.1c63.21,14.22 67.09,-63.05 140.27,-50.02 152.5,66.53 94.89,289.31 250.09,289.67 118.25,-34.84 26.08,-365.99 210.58,-252.88l-19.29 -21.17c-35.38,-9.08 -5.12,-8.99 -46.51,-18.17 -144.85,70 -48.83,184.87 -144.78,262.59 -80.97,28.86 -97.32,-122.65 -162.49,-211.27 -113.52,-154.39 -137.27,-9.93 -227.86,1.23z"/>
   <path class="fil0" d="M2203.96 3083.5l1419.8 1.77c-92.66,-24.76 -1285.15,-19.7 -1419.8,-1.77z"/>
   <path class="fil0" d="M2599.69 3285.15c91.96,28.4 403.66,11.69 492.1,-5.95 -105.3,-7.4 -419.75,-30.92 -492.1,5.95z"/>
   <path class="fil0" d="M-0 2479.43c167.76,-6.39 419.48,25 618.73,-6.13 -95.35,-35.08 -495.22,-5.46 -618.73,6.13z"/>
   <path class="fil0" d="M756.62 1194.22c74.64,77.79 96.57,-6.3 192.56,13.32 56.71,11.61 93.8,83.89 133.79,122.53 102.49,15.71 166.09,-69.2 241.31,-49.3 -130.8,-11.17 -125.77,38.75 -230.01,30.97 -32.05,-38.21 -68.36,-104.01 -124.45,-122.18 -104.47,-33.8 -100.2,51.16 -213.2,4.65z"/>
   <path class="fil0" d="M1403.79 3187.02c88.71,1.41 193.05,14.38 297.8,14.87 109.58,0.51 211.92,-14.58 316.52,-12.19 98.14,2.25 204.69,12.91 315.26,12.69 47.02,-0.09 303.66,-14.19 306.95,-13.23l-1236.52 -2.13z"/>
   <path class="fil0" d="M1977.99 350.74c-32.84,-40.25 -23.55,-38.58 -5.1,-83.4 22.03,8.16 46.21,4.31 47.3,45.07 1.17,43.61 -14.49,28.64 -42.19,38.34zm-22.23 20.96c51.18,8.89 66.49,-4.04 91.75,-29.44 4.91,-61.67 -13.3,-81.54 -56.36,-109.5 -67.87,30.52 -81.16,81.15 -35.39,138.95z"/>
   <path class="fil0" d="M1806.89 739.29c8.97,6.4 25.35,-3.84 29.96,34.27 7.01,58.01 -11.1,33.13 -29.96,43.45 -24.58,-13.62 -25.35,20.09 -30.27,-32.68 -4.12,-44.15 19.92,-37.89 30.27,-45.05zm-59.69 68.38c20.15,22.33 17.13,21.81 46.52,38.58 121.66,-9.8 72.74,-109.76 13.17,-146.63 -37.73,24.61 -60.91,42.28 -59.69,108.05z"/>
   <path class="fil0" d="M1543.64 739.19c12.39,8.09 24.73,-8.12 30.1,33.2 7.43,57.1 -12.92,37.03 -16.94,42.66 -36.4,-5.39 -37.95,17.44 -43.56,-29.73 -4.92,-41.3 20.85,-39.11 30.4,-46.13zm-58.84 67.98c20.92,24.06 15.53,21.12 45.67,38.71 122.32,-8.6 73.73,-109.58 13.17,-146.3 -36.62,24.72 -60.59,42.89 -58.84,107.59z"/>
   <path class="fil0" d="M2083.29 739.47c15.29,9.86 21.12,-11.43 30.42,32.94 10.81,51.59 -16.6,42.1 -17.26,43.01 -38.01,-6.19 -36.46,16.04 -43.09,-30.02 -5.73,-39.83 21.96,-39.91 29.94,-45.92zm-58.11 66.35c94.23,111.18 182.83,-38.17 58.11,-106.27 -33.79,26.53 -60.06,41.76 -58.11,106.27z"/>
   <path class="fil0" d="M1922.25 562.41c1.54,-40.3 24.79,-36.05 46.23,-43.1 20.73,45.72 29.3,41.39 -3.66,82.36 -30.75,-5.95 -44.14,2.08 -42.57,-39.26zm-28.29 25.49l30.51 35.97 64.39 1.49c41.39,-59.72 26.99,-110.1 -37.19,-140.99 -38.72,25.47 -57.68,40.2 -57.7,103.52z"/>
   <path class="fil0" d="M1622.62 269.21c11.57,7.79 33.3,3.53 30.84,42.7 -3.89,61.84 3.03,15.8 -30.84,34.98 -22.83,-13.53 -38.54,20.09 -28.52,-45.61 4.21,-27.58 21.82,-26.96 28.52,-32.08zm-58.3 68.71l31.35 35.35 53.26 2.06 33.87 -36.89c0.74,-59.44 -18.45,-83.34 -60.18,-105.53 -40.43,24.95 -60.06,45.16 -58.3,105.01z"/>
   <path class="fil0" d="M1782.06 194.02c-3.87,-44.66 23.62,-37.95 37.99,-45.08 37.11,31.43 28.7,6.55 26.53,71.36 -39.51,4.8 -60.78,16.87 -64.52,-26.29zm-22.23 25.48l33.21 34.88 50.87 0.91c62.75,-64.89 32.33,-95.66 -23.86,-146.62 -40.79,22.23 -64.46,43.53 -60.22,110.83z"/>
   <path class="fil0" d="M1638.1 573.42c-9.14,-41.05 24.32,-46.77 37.17,-53.31 64.1,64.08 15.15,69.51 14.97,69.82 -0.25,0.13 5.79,27.43 -35.97,6.1 -12.65,-6.45 -13.69,-11.5 -16.17,-22.61zm-0.26 50.34l63.74 2.3c55.77,-62.78 27.4,-103.68 -26.31,-141.47 -69.44,28.55 -80.31,80.15 -37.43,139.17z"/>
   <path class="fil0" d="M1422.07 3278.18l-517.8 -4.83c144.32,24.77 375.83,42.48 517.8,4.83z"/>
   <path class="fil0" d="M2057.41 3258.83c53.56,26.68 230.24,26.6 286.56,0 -61.8,-24.24 -225.92,-24.28 -286.56,0z"/>
   <path class="fil0" d="M1977.99 1753.56c35.06,-37.62 48.56,-64.87 90.28,-99.69 83.57,-0.41 105.2,61.96 131.14,-10.29 -28.68,31.7 -1.47,10.14 -40.16,23.95 -96.24,-94.27 -146.09,2.43 -188.66,68.92 -63.83,-2.24 -81.58,-12.66 -104.53,-52.2 18.66,50.49 49.08,74.65 111.92,69.3z"/>
   <path class="fil0" d="M2444.23 453.35c-11.54,63.05 17.12,39.98 -43.24,41.61 -0.79,-40.48 7,-32.21 43.24,-41.61zm38.34 -15.54c-73.32,-30.26 -140.53,15.41 -98.09,73.98 10.12,13.96 36.13,28.48 64.32,7.69 28.64,-21.11 23.8,-48.57 33.77,-81.66z"/>
   <path class="fil0" d="M2379.21 701.38c34.85,-37.53 -53.28,-12.07 41.85,-41.35 -19.39,46.83 9.12,26.49 -41.85,41.35zm66.48 -67.88l-66.29 -0.05c-95.52,105.91 93.91,159.01 66.29,0.05z"/>
   <path class="fil0" d="M2430.53 848.77c-10.5,62.3 16.32,39.96 -43.36,40.91 10.89,-54.4 -3.38,-30.17 43.36,-40.91zm-18.19 75.58c48.97,-19.22 57.62,-41.13 42.93,-103.07 -54.43,-5.08 -60.24,2.58 -92.85,29.75l0.66 50.97 49.26 22.34z"/>
   <path class="fil0" d="M1675.4 3258.83c37.44,19.96 88.83,13.06 131.48,13.15 49.56,0.1 108.75,3.47 144.69,-13.15 -58.6,-24.43 -211.85,-24.65 -276.16,0z"/>
   <path class="fil0" d="M2384.83 351.1c5.1,-59.69 -33.34,-36.82 41.05,-42.16 -15.95,56.49 -1.94,31.7 -41.05,42.16zm-33.22 -39.5l11.49 59.3 60.27 5.04c28.84,-38.43 22.62,-42.43 32.1,-98.03 -65.51,-4 -69.51,-6.02 -103.87,33.69z"/>
   <path class="fil0" d="M1287.39 2279.38c53.87,4.96 338.69,132.67 438.62,158.13 -95.05,-51.31 -311.36,-155.66 -438.62,-158.13z"/>
   <path class="fil0" d="M2312.33 2463.87c66.44,-7.39 267.3,-77.09 343.4,-107.82l30.81 -15.62c-149.03,9.56 -265.04,89.19 -374.2,123.44z"/>
   <path class="fil0" d="M2613.87 480.73c-9.88,62 17.3,37 -43.83,42.73 -0.28,-42.1 7.23,-34.35 43.83,-42.73zm-67.35 54.1c61.53,40.26 100.09,20.7 97.4,-69.6 -58.34,-21.57 -101.48,-16.15 -97.4,69.6z"/>
   <path class="fil0" d="M3557.09 2482.55c43.49,16.56 166.65,10.54 224.62,9.6l77.49 -9.6c-54.79,-23.18 -247.86,-21.61 -302.12,0z"/>
   <path class="fil0" d="M1605.52 2807.54c-79.48,-45.42 -173.77,-93.67 -284.37,-111.89 41.51,31.84 216.26,104.82 284.37,111.89z"/>
   <path class="fil0" d="M848.09 2805.72l416.25 4.7c-104.35,-25.78 -316.41,-28.27 -416.25,-4.7z"/>
   <path class="fil0" d="M2874.06 2807.04l426.36 2.17c-30.72,-3.18 -147.31,-18.76 -203.66,-19.04 -75.13,-0.39 -158.92,-2.24 -222.7,16.87z"/>
   <path class="fil0" d="M1403.84 1674.05l93.71 -9.83c29.18,54.74 8.86,39.91 59.25,65.44 39.3,-13.51 34.83,-6.77 48.92,-44.48 -21.88,26.7 -8.65,16.7 -48.92,23.84 -34.67,-38.39 -25.52,-48.92 -65.81,-76.4 -37.52,13.19 -90.38,56.13 -112.53,-12 2.76,33.27 10.09,34.31 25.37,53.43z"/>
   <path class="fil0" d="M3174.45 833.26c-55.84,-32.57 -200.27,-93.94 -279.83,-92.56l127.05 52.81c52.68,16.73 95.62,33.96 152.78,39.74z"/>
   <path class="fil0" d="M2494.85 877.34c63.04,-24.82 117.58,-112.4 123.18,-206.17 -40.61,81.11 -82.93,140.25 -123.18,206.17z"/>
   <path class="fil0" d="M2425.5 1937.99c-38.94,73.31 11.04,158.84 79.63,175.15 -81.35,-81.01 -43.82,-60.06 -79.63,-175.15z"/>
   <path class="fil0" d="M2454.82 2334.71c62.61,-2.7 101.14,-16.87 137.68,-45.35 -63.84,0.41 -101.36,16.01 -137.68,45.35z"/>
   <path class="fil0" d="M2042.77 1112.17l103.18 -39.94c47.79,7.08 39.76,14.86 82.12,22.31l20.01 -23.68c-4.44,0.53 16.27,20.53 -38.82,0.61 -75.25,-27.22 -23.61,-53.1 -103.39,12.4 -33.03,27.12 -28.17,11.65 -63.1,28.29z"/>
   <path class="fil0" d="M1488.89 2284.46c18.42,17.78 14.69,19.77 51.29,31.22 29.48,9.24 22.99,7.38 68.47,6.94 -35.89,-27.49 -44.66,-33.72 -119.76,-38.16z"/>
   <path class="fil0" d="M1605.44 2258.88c-19.79,-16.4 -46.11,-30.57 -84.78,-14.8 49.13,28.4 68.05,24.7 84.78,14.8z"/>
   <path class="fil0" d="M2473.33 2272.04c29.08,15.24 40.53,-1.12 59.04,-25.49 -39.01,5.17 -33.92,0.12 -59.04,25.49z"/>
   <path class="fil0" d="M2784.46 2682.19c36.3,15.09 41.14,5.74 58.78,-29.56l-58.78 29.56z"/>
   <path class="fil0" d="M1783.9 2903.59c48.52,25.26 32.95,1.52 35.86,0 -58.41,-36.07 -32.82,-2.22 -35.86,0z"/>
   <path class="fil0" d="M1679.84 2861.97c13.56,7.9 4.3,10.74 23.92,10.34 28.12,-0.56 8.94,0.14 21.62,-8.18 -35.06,-18.37 -18.74,-16.17 -45.55,-2.16z"/>
   <path class="fil0" d="M1550.84 2200.18l52.9 12.55c-0.83,-8.34 -3.99,-13.82 -4.93,-11.52 -1.69,4.04 -8.81,-16.49 -47.96,-1.03z"/>
   <path class="fil0" d="M3261.08 851.05l38.47 24.49c-7.74,-25.6 -10.53,-33.07 -38.47,-24.49z"/>
   <path class="fil0" d="M2362.34 1798.61c14.66,22.75 -1.86,17.14 29.52,19.88 -10.11,-27.69 9.66,-12.09 -29.52,-19.88z"/>
   <path class="fil0" d="M3373.03 890.53c0.64,27.25 35.78,0.15 17.43,-4.31 -30.58,-7.44 -17.95,-18.56 -17.43,4.31z"/>
   <path class="fil0" d="M1496.96 1858.79c-35.82,3.59 -21.57,-8.24 -22.59,28.78l22.59 -28.78z"/>
   <path class="fil0" d="M2406.64 1882.04l24.99 -4.72c-31.25,-25.75 -11.18,-11.79 -24.99,4.72z"/>
   <path class="fil0" d="M2639.61 601.06c-0.49,11.78 21.22,24.3 16.12,-1.54 -6.53,-33.13 28.38,-2.83 -4.66,-3.09 -16.12,-0.13 -10.55,-17.14 -11.46,4.64z"/>
  </g>
 </g>
</svg>
