<?xml version="1.0" encoding="UTF-8"?>
<!DOCTYPE svg PUBLIC "-//W3C//DTD SVG 1.1//EN" "http://www.w3.org/Graphics/SVG/1.1/DTD/svg11.dtd">
<!-- Creator: CorelDRAW 2018 (64 Bit Versão de avaliação) -->
<svg xmlns="http://www.w3.org/2000/svg" xml:space="preserve" width="289.99mm" height="292.079mm" version="1.1" style="shape-rendering:geometricPrecision; text-rendering:geometricPrecision; image-rendering:optimizeQuality; fill-rule:evenodd; clip-rule:evenodd"
viewBox="0 0 6166.9 6211.33"
 xmlns:xlink="http://www.w3.org/1999/xlink">
 <defs>
  <style type="text/css">
   <![CDATA[
    .fil0 {fill:#34353C;fill-rule:nonzero}
    .fil1 {fill:#E7402C;fill-rule:nonzero}
    .fil2 {fill:#EE757B;fill-rule:nonzero}
   ]]>
  </style>
 </defs>
 <g id="Camada_x0020_1">
  <metadata id="CorelCorpID_0Corel-Layer"/>
  <g id="_2099237213424">
   <polygon class="fil0" points="369.18,2062.48 394.46,2062.48 394.46,1298.76 369.18,1298.76 "/>
   <polygon class="fil0" points="-0,1693.26 763.72,1693.26 763.72,1668.01 -0,1668.01 "/>
   <polygon class="fil0" points="217.56,1534.22 528.23,1844.88 546.08,1827.03 235.41,1516.38 "/>
   <polygon class="fil0" points="528.23,1516.38 217.56,1827.03 235.41,1844.88 546.08,1534.22 "/>
   <polygon class="fil0" points="865.75,1250.38 890.95,1250.38 890.95,823.29 865.75,823.29 "/>
   <polygon class="fil0" points="664.77,1049.46 1091.86,1049.46 1091.86,1024.22 664.77,1024.22 "/>
   <polygon class="fil0" points="782.54,958.9 956.29,1132.64 974.14,1114.79 800.4,941.04 "/>
   <polygon class="fil0" points="956.29,941.04 782.54,1114.79 800.4,1132.64 974.14,958.9 "/>
  </g>
  <g id="_2099237222320">
   <path class="fil1" d="M5713.93 334.5c0,0 -161.52,-118.07 -267.17,-62.14 -98.09,51.91 87.58,291.19 333.44,365.06 31.91,9.61 65.79,-7.54 76.29,-39.21 36.04,-107.55 109.77,-346.13 81.1,-412.86 -37.21,-87 -205.02,-93.21 -223.67,149.15z"/>
   <path class="fil1" d="M6014.77 855.91c0,0 -133.54,-54.09 -197.36,3.46 -59.4,53.41 112.13,187.86 296.62,196.35 23.96,1.09 44.58,-16.8 46.44,-40.76 6.19,-81.35 15.91,-260.79 -15.71,-302.35 -41.24,-54.19 -159.55,-29.12 -130,143.29z"/>
  </g>
  <g id="_2099237225008">
   <polygon class="fil0" points="4955.24,6211.33 4980.52,6211.33 4980.52,5447.6 4955.24,5447.6 "/>
   <polygon class="fil0" points="4586.05,5842.1 5349.76,5842.1 5349.76,5816.86 4586.05,5816.86 "/>
   <polygon class="fil0" points="4803.63,5683.08 5114.3,5993.73 5132.17,5975.88 4821.5,5665.23 "/>
   <polygon class="fil0" points="5114.3,5665.23 4803.63,5975.88 4821.5,5993.73 5132.17,5683.08 "/>
   <polygon class="fil0" points="5451.77,5399.23 5476.98,5399.23 5476.98,4972.13 5451.77,4972.13 "/>
   <polygon class="fil0" points="5250.78,5198.31 5677.87,5198.31 5677.87,5173.06 5250.78,5173.06 "/>
   <polygon class="fil0" points="5368.6,5107.74 5542.3,5281.48 5560.17,5263.63 5386.47,5089.88 "/>
   <polygon class="fil0" points="5542.3,5089.88 5368.6,5263.63 5386.47,5281.48 5560.17,5107.74 "/>
   <path class="fil2" d="M5795.52 5969.07c0,0 -14.43,-143.29 -95.14,-172.93 -75.02,-27.55 -113.9,186.91 -35.25,354.02 10.31,21.76 35.74,31.62 57.83,22.06 74.72,-32.48 238.01,-107.68 260,-155.08 28.67,-61.78 -48.7,-154.6 -187.44,-48.07z"/>
  </g>
  <path class="fil0" d="M4453.99 273.1c0,0 -11.29,-2.68 -32.5,-7.72 -10.51,-2.59 -23.56,-5.81 -38.78,-9.83 -15.32,-3.78 -32.7,-9 -52.34,-12.83 -19.64,-4.12 -41.14,-9.05 -64.41,-14.29 -5.7,-1.32 -11.68,-2.65 -17.67,-4.02 -6.09,-1.14 -12.37,-2.31 -18.75,-3.49 -12.67,-2.35 -25.83,-4.78 -39.47,-7.29 -13.55,-2.45 -27.39,-5.17 -41.73,-8.01 -14.34,-2.42 -29.26,-4.31 -44.48,-6.58 -15.32,-2.11 -30.83,-4.6 -46.74,-7.07 -15.71,-2.88 -32.3,-3.91 -49,-5.79 -33.38,-3.31 -67.65,-8.5 -103.68,-9.88 -17.97,-1.03 -36.23,-2.5 -54.59,-3.91 -9.23,-0.91 -18.56,-0.92 -27.88,-1.18 -9.43,-0.21 -18.85,-0.43 -28.38,-0.67 -18.95,-0.54 -38.19,-1.07 -57.63,-1.63 -19.44,0.3 -39.08,0.62 -58.91,0.94 -39.67,-0.13 -80.12,3.1 -121.16,5.13 -20.52,0.52 -41.04,3.97 -61.76,5.7 -20.72,2.24 -41.63,3.66 -62.45,6.55 -20.91,3.04 -41.83,6.12 -62.94,9.19 -10.51,1.66 -21.01,2.74 -31.52,4.64 -10.51,2.04 -21.01,4.1 -31.52,6.15 -21.11,4 -42.22,8.01 -63.43,12.04 -20.91,5.18 -41.93,10.28 -63.04,15.21l-31.62 7.48 -31.22 9.08c-20.82,6 -41.73,12.01 -62.55,18.03 -20.62,6.7 -41.14,13.98 -61.66,20.92l-30.83 10.43c-10.31,3.32 -20.23,7.84 -30.24,11.68 -20.23,7.93 -40.26,15.85 -60.29,23.74l-7.56 2.92 -0.88 0.37c0.39,-0.23 -2.46,1.02 0.78,-0.42l-1.96 0.86 -3.83 1.74 -15.51 6.93c-10.41,4.58 -20.72,9.16 -31.03,13.75 -21.5,9.02 -38.88,18.24 -57.83,27.29 -9.43,4.48 -18.75,8.96 -28.08,13.42 -9.43,4.94 -18.75,9.87 -28.08,14.78 -37.7,18.99 -73.84,40.07 -109.77,60.29 -71.19,41.6 -137.86,86.06 -200.11,130.19 -15.51,11.16 -30.83,22.18 -45.95,33.02 -14.73,11.29 -29.16,22.59 -43.7,33.34 -14.63,10.63 -28.28,21.99 -42.02,32.86 -13.55,10.99 -27.2,21.5 -40.06,32.3 -25.92,21.58 -51.06,42.1 -74.03,62.63 -11.68,10.12 -23.07,19.98 -34.27,29.57 -10.8,9.87 -21.31,19.47 -31.52,28.75 -10.31,9.3 -20.42,18.15 -29.95,26.99 -9.33,8.96 -18.46,17.52 -27.29,25.7 -8.84,8.23 -17.38,16.11 -25.43,23.65 -7.95,7.7 -15.51,15.04 -22.78,22 -14.44,13.96 -27.39,26.41 -38.78,37.24 -11,11.09 -20.62,20.42 -28.28,27.98 -15.81,15.08 -24.21,23.11 -24.21,23.11 0,0 5.18,-10.4 14.88,-29.88 4.91,-9.72 11.1,-21.7 18.46,-35.68 7.36,-13.99 16.59,-29.6 26.71,-47.27 5.2,-8.81 10.51,-18.21 16.3,-27.83 5.99,-9.52 12.37,-19.48 18.85,-29.87 6.58,-10.42 13.45,-21.23 20.82,-32.35 7.26,-11.09 15.32,-22.29 23.27,-34.04 8.05,-11.76 16.5,-23.78 25.43,-36.1 9.13,-12.1 18.46,-24.55 28.18,-37.32 18.95,-25.88 40.94,-51.34 63.33,-78.71 46.15,-53.26 97.89,-110 157.89,-165.05 59.8,-55.1 125.78,-110.78 199.12,-162.14 36.72,-25.62 74.52,-51.16 114.29,-74.62 9.82,-5.96 19.73,-11.93 29.75,-17.93 10.41,-5.74 20.82,-11.52 31.32,-17.3 20.82,-11.15 42.71,-23.59 62.45,-32.91 10.11,-4.96 20.23,-9.93 30.44,-14.89l15.32 -7.42 3.83 -1.87 1.87 -0.92 3.73 -1.68 8.25 -3.53c21.99,-9.3 44.09,-18.64 66.18,-27.98 11.1,-4.49 21.9,-9.63 33.39,-13.57l33.97 -11.98c22.68,-7.83 45.36,-16.09 68.24,-23.52 23.17,-6.54 46.34,-13.07 69.42,-19.6 11.68,-3.24 23.27,-6.54 34.86,-9.53l35.15 -7.65c23.47,-5.15 46.84,-10.1 70.11,-14.94 23.56,-3.62 47.03,-7.24 70.4,-10.83 11.78,-1.72 23.47,-3.45 35.05,-5.17 11.68,-1.52 23.47,-2.39 35.05,-3.49 23.37,-2.04 46.54,-4.07 69.62,-6.09 11.49,-1.26 23.07,-0.94 34.56,-1.47 11.49,-0.32 22.88,-0.66 34.37,-0.98 11.39,-0.26 22.68,-0.51 33.97,-0.75 5.7,-0.06 11.29,-0.3 16.89,-0.22l16.89 0.55c44.87,1.89 88.96,1.6 131.77,7.03 21.4,2.12 42.51,4.2 63.43,6.25 20.92,2.75 41.34,6.11 61.56,9.42 10.01,1.65 20.03,3.29 29.95,4.92 9.92,1.65 19.83,3.06 29.55,5.38 19.34,4.19 38.49,8.25 57.05,12.64 37.51,7.87 73.05,18.59 107.02,28.56 34.07,9.48 65.98,21.28 96.13,32.32 15.12,5.65 29.85,10.81 43.99,16.4 14.04,5.96 27.69,11.79 40.75,17.64 13.06,5.77 25.63,11.35 37.9,16.75 6.09,2.73 12.08,5.26 17.87,8 5.7,2.99 11.39,5.9 16.89,8.77 22.19,11.46 42.22,21.86 60.29,31.6 18.16,9.24 33.29,19.06 46.74,27.35 13.35,8.25 24.65,15.45 33.87,21.31 18.26,11.86 27.98,18.2 27.98,18.2z"/>
  <path class="fil0" d="M5431.93 1137.34c0,0 -12.08,-9.98 -31.03,-28.74 -4.71,-4.7 -9.92,-9.9 -15.61,-15.55 -5.79,-5.35 -11.78,-11.3 -18.26,-17.51 -6.58,-6.18 -12.96,-12.99 -20.03,-19.96 -7.27,-6.94 -14.73,-14.25 -22.58,-21.87 -7.95,-7.55 -15.51,-15.83 -24.06,-23.89 -8.54,-8.03 -17.18,-16.44 -25.92,-25.13 -4.42,-4.34 -8.74,-8.75 -13.26,-13.21 -4.61,-4.37 -9.23,-8.79 -13.94,-13.27 -9.43,-8.91 -18.66,-18.27 -28.28,-27.61 -19.54,-18.35 -38.88,-37.93 -59.5,-57.26 -19.83,-19.77 -40.94,-39.24 -61.17,-59.44 -20.82,-19.76 -41.14,-40.12 -61.56,-59.93 -20.03,-20.07 -40.06,-39.83 -58.91,-59.54 -19.24,-19.5 -37.31,-38.92 -54.49,-57.51 -17.09,-18.59 -32.79,-36.84 -47.42,-53.72 -28.87,-34.03 -51.84,-64.03 -67.16,-85.86 -15.41,-21.76 -23.27,-35.31 -23.27,-35.31 0,0 14.73,5.18 39.08,16.2 12.17,5.45 26.61,12.42 43.01,20.73 16.4,8.31 34.56,18.12 54.1,29.27 19.34,11.22 40.16,23.71 61.66,37.69 21.6,13.85 43.79,29.43 66.38,45.86 22.39,16.81 45.46,34.36 67.85,53.59 22.68,18.81 44.77,39.37 66.57,60.01 21.4,21.37 42.61,42.75 62.15,65.4 19.93,22.07 37.9,45.5 55.18,68.11 8.44,11.52 16.4,23.17 24.05,34.54 7.86,11.27 15.12,22.59 21.7,34.01 6.68,11.29 13.16,22.31 19.05,33.09 5.89,10.92 11.19,21.65 16.1,31.98 4.91,10.46 9.92,20.11 13.94,29.87 3.83,9.91 7.76,19.13 10.9,27.98 3.24,8.84 6.38,16.96 8.93,24.65 2.46,7.64 4.42,14.7 6.09,21.16 6.87,25.71 9.72,41.14 9.72,41.14z"/>
  <path class="fil0" d="M5131.97 4492.24c0,0 7.17,-10.76 20.52,-30.94 6.78,-10.04 15.12,-22.4 25.14,-36.76 5.11,-7.14 10.01,-15.1 15.42,-23.5 5.4,-8.32 11.19,-17.16 17.28,-26.51 6.09,-9.29 12.57,-19.07 19.24,-29.32 6.78,-10.2 13.35,-21.38 20.52,-32.72 13.84,-23 29.95,-46.86 45.17,-73.81 7.66,-13.35 15.81,-26.99 24.15,-40.96 8.64,-13.87 16.2,-28.91 24.74,-43.87 8.35,-14.99 16.89,-30.38 25.73,-46.12 8.34,-15.96 16.89,-32.3 25.53,-48.99 4.42,-8.3 8.84,-16.69 13.26,-25.16 4.22,-8.59 8.54,-17.27 12.86,-26.03 8.54,-17.48 17.28,-35.29 26.22,-53.41 16.4,-36.95 35.05,-74.05 51.06,-113.75 4.12,-9.83 8.34,-19.7 12.67,-29.66 4.42,-9.83 8.34,-19.95 12.37,-30.14 8.15,-20.32 16.3,-40.86 24.55,-61.64 7.66,-21.07 15.22,-42.33 23.27,-63.63 2.06,-5.33 4.03,-10.67 5.99,-16.03l5.5 -16.31c3.73,-10.9 7.36,-21.84 11,-32.82 28.96,-88.03 55.97,-179.77 78.55,-274.16 22.29,-94.43 40.75,-191.27 54.89,-288.77 14.14,-97.49 24.35,-195.65 29.55,-292.69 5.2,-97.04 6.28,-192.86 4.42,-285.77 -0.79,-23.23 -1.47,-46.28 -2.16,-69.11 -1.47,-22.79 -2.75,-45.39 -3.83,-67.82 -0.78,-22.44 -3.34,-44.48 -4.91,-66.38 -1.67,-21.89 -3.53,-43.51 -5.79,-64.79 -2.16,-21.35 -4.22,-42.39 -6.38,-63.13 -2.65,-20.67 -5.5,-41 -7.76,-61.12 -2.16,-20.16 -5.3,-39.8 -8.25,-59.13 -2.85,-19.36 -5.7,-38.36 -8.54,-56.98 -3.14,-18.6 -6.28,-36.79 -9.33,-54.57 -1.47,-8.91 -2.95,-17.73 -4.51,-26.43 -1.67,-8.54 -3.24,-16.98 -4.81,-25.31 -3.34,-17.2 -6.68,-33.96 -9.82,-50.26 -3.14,-16.32 -6.09,-32.22 -9.43,-47.04 -6.38,-30 -12.77,-58.09 -17.97,-84.38 -6.09,-26.1 -12.08,-50.09 -16.89,-71.95 -2.45,-10.93 -4.91,-21.28 -7.17,-31.01 -2.36,-9.68 -4.61,-18.75 -6.77,-27.2 -4.32,-16.87 -7.86,-31.33 -10.7,-43.08 -5.5,-23.6 -8.35,-36.2 -8.35,-36.2 0,0 6.58,11.08 19.05,31.85 6.09,10.43 13.65,23.32 22.29,38.61 4.42,7.66 9.23,15.82 14.04,24.67 4.71,8.94 9.53,18.44 14.73,28.48 10.51,20.07 21.8,42.49 33.97,66.97 11.59,24.83 23.56,52.03 36.72,81.11 6.87,14.59 12.76,29.56 18.85,44.96 6.19,15.42 12.47,31.26 19.05,47.53 1.57,4.07 3.24,8.17 4.91,12.28l2.36 6.21 1.28 3.12 0.69 1.56 0.3 0.78c0.49,1.87 0.29,0.98 0.49,1.61 2.95,8.61 5.99,17.32 9.13,26.14 6.19,17.68 12.57,35.76 18.95,54.23 23.76,74.49 48.01,156.16 66.67,244.32 18.65,88.05 35.35,182.01 44.58,280.23 10.02,98.13 14.44,200.31 12.57,304.16 -1.67,103.86 -10.9,209.29 -25.92,313.87 -15.32,104.55 -37.12,208.18 -64.8,308.44 -27.98,100.19 -61.96,196.91 -100.74,287.93 -18.85,45.67 -39.47,89.7 -60.29,132.41 -22.19,42.1 -42.71,83.72 -65.98,122.48 -22.29,39.34 -46.05,76.31 -68.73,112.08 -11.98,17.48 -23.86,34.66 -35.35,51.53 -5.79,8.4 -11.59,16.72 -17.28,24.96 -5.79,8.1 -11.88,15.97 -17.87,23.81 -11.78,15.63 -23.37,30.94 -34.76,45.89 -11.59,14.74 -23.17,28.88 -34.66,42.58 -22.48,27.66 -44.97,52.96 -66.37,76.32 -21.01,23.69 -42.03,44.71 -61.37,64.1 -9.82,9.65 -18.75,19.09 -27.98,27.73 -9.23,8.54 -18.07,16.68 -26.41,24.41 -33.09,31.25 -60.58,53.44 -79.33,68.72 -18.95,15.18 -28.97,23.26 -28.97,23.26z"/>
  <path class="fil0" d="M545.93 4826.22c0,0 8.18,6.86 23.56,19.75 7.58,6.5 16.96,14.53 27.83,24.12 5.4,4.77 11.25,9.89 17.56,15.36 6.31,5.25 13.05,10.83 20.1,16.74 14.34,11.69 29.71,24.86 46.44,39.03 17.48,13.66 35.86,28.87 55.66,44.81 39.84,31.62 84.92,66.72 134.97,103.68 24.69,18.74 51.31,37.37 78.25,57.07 27.38,19.21 55.44,39.32 84.7,59.48 29.78,19.53 58.97,41.14 90.48,61.31 15.6,10.28 31.28,20.64 46.96,31.42 15.97,10.44 32.03,20.95 48.31,31.58 8.11,5.3 16.28,10.62 24.46,15.97 8.26,5.27 16.5,10.54 24.83,15.86 16.58,10.69 33.24,21.46 50.05,32.31 33.83,21.52 68.04,43.31 102.55,65.27 69.32,44.07 139.77,88.83 210.21,133.59 70.68,45.54 140.45,90.61 208.71,133.4 34.29,21.73 68.51,42.48 102.29,63.04 16.89,10.34 33.87,19.99 50.57,29.93 8.44,4.97 16.79,9.93 25.04,14.86 8.34,4.74 16.69,9.46 25.04,14.16 66.28,38.15 131.67,71.65 194.51,101.89 15.81,7.35 31.42,14.6 46.74,21.74 15.32,7.41 30.93,12.86 45.95,19.63 7.46,3.24 15.02,6.45 22.39,9.63 7.46,3.27 14.83,6.35 22.19,8.94 14.83,5.55 29.46,10.76 43.69,16.38 7.17,2.68 14.24,5.68 21.21,8.02 7.07,2.31 14.14,4.59 21.01,6.85 13.94,4.54 27.59,8.86 40.75,13.47 26.61,8.49 52.43,14.55 76.58,21.88 24.16,6.34 47.23,10.61 68.54,15.99 5.3,1.21 10.6,2.61 15.71,3.61 5.11,0.87 10.21,1.72 15.12,2.54 10.01,1.75 19.44,3.42 28.38,5.01 36.04,7.31 64.9,9.56 84.64,12.53 19.93,2.82 30.54,4.33 30.54,4.33 0,0 -10.31,2.64 -29.85,7.11 -9.82,2.25 -21.99,4.98 -36.33,7.96 -14.34,3.6 -30.93,5.25 -49.68,7.72 -9.43,1.17 -19.25,2.54 -29.75,3.66 -5.11,0.6 -10.51,1.2 -15.91,1.83 -5.5,0.49 -11.09,0.61 -16.79,0.94 -11.39,0.6 -23.27,1.13 -35.74,1.51 -12.37,0.25 -25.33,1.28 -38.49,0.91 -13.26,-0.27 -27,-0.83 -41.04,-1.42 -7.17,-0.28 -14.24,-0.57 -21.5,-0.87 -7.36,-0.26 -14.73,-0.53 -22.19,-1.41 -14.83,-1.37 -29.95,-3.18 -45.66,-4.9 -7.85,-0.87 -15.81,-1.77 -23.76,-2.66 -7.95,-0.94 -15.91,-2.53 -24.06,-3.79 -16.2,-2.58 -32.7,-5.73 -49.59,-8.72 -8.44,-1.39 -16.89,-3.23 -25.23,-5.25 -8.54,-1.95 -17.08,-3.92 -25.72,-5.91 -8.64,-1.98 -17.28,-3.99 -26.12,-6.18 -8.74,-2.1 -17.58,-4.27 -26.31,-6.95 -17.48,-5.12 -35.35,-10.32 -53.32,-15.59 -71.48,-22.79 -146.1,-50.19 -219.94,-84.25 -74.13,-33.23 -148.87,-71.46 -222.09,-113.36 -73.89,-41.95 -146.29,-86.69 -216.96,-132.1 -70.97,-45.65 -141.64,-92.32 -210.13,-140.45 -34.36,-23.73 -67.9,-48.54 -101.13,-72.7 -32.78,-25.01 -65.41,-49.03 -96.55,-74.52 -15.6,-12.53 -31.14,-24.97 -46.51,-37.28 -15.23,-12.55 -30.08,-25.26 -44.79,-37.84 -14.78,-12.49 -29.26,-24.99 -43.28,-37.7 -14.19,-12.56 -28.14,-25.02 -41.64,-37.54 -13.58,-12.5 -26.64,-25.32 -39.61,-37.67 -12.83,-12.51 -25.88,-24.37 -37.89,-37.02 -12.08,-12.52 -23.93,-24.81 -35.63,-36.9 -11.63,-12.04 -23.11,-23.77 -33.69,-36.06 -43.44,-47.75 -81.02,-93.45 -112.83,-135.04 -15.53,-21.16 -30.23,-40.66 -43.29,-59.1 -12.68,-18.99 -24.31,-36.3 -34.43,-52.13 -5.1,-7.87 -9.9,-15.32 -14.41,-22.33 -4.2,-7.18 -8.1,-13.9 -11.7,-20.16 -7.28,-12.51 -13.35,-23.28 -18.22,-32.03 -9.61,-17.6 -14.71,-26.97 -14.71,-26.97z"/>
  <path class="fil0" d="M693.12 2388.6c0,0 -5.33,7.67 -15.23,22.05 -9.76,14.38 -25.88,34.6 -43.29,61.31 -8.78,13.38 -18.98,27.42 -29.49,43.28 -10.04,16.35 -21.45,33.45 -33.23,51.84 -11.25,18.68 -23.26,38.55 -35.87,59.5 -12.3,21.06 -24.46,43.55 -37.43,66.6 -12.01,23.74 -25.21,47.83 -37.59,73.42 -11.64,26.03 -25.59,51.64 -36.76,79.63 -5.93,13.75 -11.93,27.69 -18.01,41.8 -5.55,14.36 -11.25,28.82 -17.1,43.34 -6.08,14.43 -11.33,29.42 -16.65,44.47 -5.33,15.09 -11.11,30.09 -16.21,45.5 -20.7,61.58 -38.78,126.03 -55.21,191.91 -15.39,66.2 -28.21,133.95 -38.33,202.2 -9.45,68.37 -15.98,137.13 -20.04,205.16 -2.99,68.06 -4.19,135.29 -2.4,200.59 0.3,16.32 1.42,32.47 2.02,48.54 0.68,16.05 1.28,32 2.63,47.7 1.12,15.76 2.17,31.35 3.3,46.75 1.5,15.39 2.99,30.6 4.5,45.59 2.41,30.18 7.06,59.18 10.21,87.65 3.52,28.4 8.54,55.53 12.22,82.04 4.8,26.32 9.38,51.55 13.73,75.55 4.95,24.06 9.68,46.88 14.11,68.32 4.87,21.4 9.82,41.39 13.81,60.22 4.35,18.69 9.22,35.55 12.9,51.21 7.35,31.3 14.78,55.4 18.9,72.36 4.28,16.99 6.53,26.04 6.53,26.04 0,0 -5.93,-7.14 -16.73,-20.87 -5.4,-6.87 -12.08,-15.39 -19.73,-25.56 -3.75,-5.11 -8.11,-10.43 -12.16,-16.46 -4.06,-6.02 -8.4,-12.41 -12.98,-19.18 -9.15,-13.55 -19.28,-28.62 -29.63,-45.45 -10.28,-16.87 -20.71,-35.48 -32.26,-55.36 -10.95,-20.06 -21.53,-41.99 -33.3,-64.97 -11.18,-23.21 -21.46,-48.2 -33.08,-74.17 -5.33,-13.11 -10.21,-26.7 -15.46,-40.48 -5.02,-13.86 -10.87,-27.83 -15.45,-42.42 -9.45,-29.09 -19.82,-59.19 -27.69,-90.81 -4.28,-15.76 -8.63,-31.75 -12.61,-48.05 -3.52,-16.39 -7.12,-32.98 -10.72,-49.75 -1.73,-8.41 -3.83,-16.85 -5.25,-25.4 -1.42,-8.56 -2.85,-17.17 -4.28,-25.82 -2.77,-17.31 -6.07,-34.79 -8.25,-52.52 -9.46,-70.92 -14.41,-144.96 -14.7,-220.36 0.67,-75.37 6.07,-151.99 16.5,-228.05 11.48,-75.91 27.76,-151.1 48.69,-223.75 21.91,-72.4 47.94,-142.23 78.03,-207.54 7.28,-16.42 15.75,-32.16 23.55,-47.99 3.98,-7.87 7.89,-15.71 11.86,-23.51 3.98,-7.76 8.47,-15.23 12.6,-22.79 8.48,-15.05 16.96,-29.89 25.44,-44.44 8.77,-14.39 17.93,-28.37 26.85,-42.11 8.93,-13.78 17.7,-27.32 27.24,-40.15 9.3,-12.96 18.3,-25.74 27.53,-38.04 9.07,-12.44 19.13,-23.9 28.28,-35.51 9.45,-11.46 18.3,-22.93 27.76,-33.57 9.68,-10.5 19.06,-20.77 28.29,-30.81 9.38,-9.88 17.77,-20.04 27.38,-28.83 9.31,-8.97 18.38,-17.7 27.24,-26.21 8.85,-8.4 17.03,-16.87 25.96,-24.22 17.63,-14.89 33.76,-28.93 49.13,-41.4 15.6,-12.3 30.46,-23.14 43.81,-32.75 6.61,-4.8 12.91,-9.34 18.76,-13.61 5.92,-4.17 11.77,-7.56 17.1,-11 10.66,-6.78 19.81,-12.37 27.24,-16.91 15,-8.96 23.03,-13.73 23.03,-13.73z"/>
 </g>
</svg>
