<?xml version="1.0" encoding="UTF-8"?>
<!DOCTYPE svg PUBLIC "-//W3C//DTD SVG 1.1//EN" "http://www.w3.org/Graphics/SVG/1.1/DTD/svg11.dtd">
<!-- Creator: CorelDRAW 2018 (64 Bit Versão de avaliação) -->
<svg xmlns="http://www.w3.org/2000/svg" xml:space="preserve" width="83.4465mm" height="101.83mm" version="1.1" style="shape-rendering:geometricPrecision; text-rendering:geometricPrecision; image-rendering:optimizeQuality; fill-rule:evenodd; clip-rule:evenodd"
viewBox="0 0 9304.1 11353.85"
 xmlns:xlink="http://www.w3.org/1999/xlink">
 <defs>
  <style type="text/css">
   <![CDATA[
    .fil0 {fill:#EA5635;fill-rule:nonzero}
    .fil1 {fill:#EE757B;fill-rule:nonzero}
    .fil2 {fill:#FEFEFE;fill-rule:nonzero}
   ]]>
  </style>
 </defs>
 <g id="Camada_x0020_1">
  <metadata id="CorelCorpID_0Corel-Layer"/>
  <g id="_2099237203216">
   <path class="fil0" d="M3642.91 3776.42c-43.39,33.87 -105.63,76.81 -172.45,101.01 -16.17,6.08 -33.77,11.94 -47.99,16.16l-31.75 8.24 -63.69 15.97c-84.84,23.63 -171.32,34.64 -257.81,47.56 -173.59,23.16 -347.95,23.68 -521.7,16.01 -347.54,-19.51 -689.52,-90.25 -1021.46,-198.82 -330.76,-112.69 -653.79,-256.57 -955.77,-474.85 -150.02,-111.25 -298.12,-237.52 -424.05,-425.84 -31.97,-44.83 -58.68,-103.63 -85.25,-158.09 -21.62,-64.3 -46.58,-123.19 -53.59,-200.36 -13.59,-71.5 -6.28,-153.05 4.48,-232.07 20.23,-76.34 44.68,-158.19 85.96,-220.07 37.53,-71.4 88.91,-116.45 139.15,-162.78 50.55,-46.13 100.85,-72.95 152.28,-107.75 49.98,-27.23 99.36,-49 149.18,-72.38 50.35,-19.87 101.67,-35.47 152.33,-52.3 206.9,-59.19 425.69,-65.74 624.71,-31.04 401.34,71.92 721.23,271.41 998.25,486.64 276.65,219.35 512.63,469.29 729.56,729.83 108.16,130.86 210.71,265.02 308.53,402.01 49.32,68.31 96.62,137.97 143.26,207.82l68.83 105.95 33.67 53.64 16.62 27.18 8.44 13.69 5.66 9.38c17.82,24.35 23.74,68.93 14.57,95.29zm-193.46 -66.62c-12,22.19 -8.96,62.35 5.76,82.42l-2.99 -3.39 -9.27 -11.64 -18.79 -23.57 -38.51 -47.06 -78.76 -92.97c-53.33,-61.31 -107.08,-122.27 -162.36,-181.77 -110.27,-119.34 -224.2,-234.7 -341.77,-345.02 -235.22,-219.82 -484.74,-423.11 -749.44,-582.91 -262.76,-158.29 -547.03,-274.59 -805.05,-283.71 -128.65,-4.68 -246.59,17.19 -352.85,63.84l-77.62 39.12 -68.31 45.66c-35.42,30.06 -58.54,62.71 -62.29,69.91 -11.48,8.5 -16.58,-0.87 -19,19.04 -6.12,6.29 2.06,24.76 0.88,40.32 8.7,19.81 10.25,39.79 23.73,63.83 44.59,95.23 134.88,204.89 239.33,302.59 211.22,198.82 480.11,365.1 760.1,500.18 282.42,133.03 583.11,235.52 892.15,291.69 154.39,25.85 310.93,45.05 467.08,43.6 77.58,-2.05 156.6,-2.01 233.2,-13.69l57.92 -7.2 29.08 -3.5c5.78,-0.88 8.04,-0.98 11.9,-0.26 12.57,1.91 29.86,22.76 65.9,34.49z"/>
   <path class="fil0" d="M3568.93 3651.99c13.13,-35.51 7.63,-62.08 13.85,-73.1 1.85,-3.5 3.24,-5.15 7.51,-9.01l20.91 -20.69 41.49 -41.09c56.79,-52.66 105.69,-114.74 155.53,-174.3 97.91,-121.44 180.07,-256.22 255.44,-393.31 147.79,-277.27 254,-576.52 325.09,-880.56 67.69,-303.63 104.09,-617.55 79.23,-906.56 -11.84,-142.45 -41.66,-281.29 -88.81,-375.45 -10.29,-25.48 -25.06,-38.97 -35.21,-58.17 -12.98,-8.71 -22.34,-26.46 -31.1,-25.74 -17.14,-10.39 -12.92,-0.61 -26.71,3.19 -7.88,-1.54 -48.03,-3.76 -93.44,5.41l-78.15 25.18 -78.92 36.5c-102.54,54.46 -193.05,133.49 -269.03,237.21 -153.15,207.98 -238.19,503.11 -277.12,807.47 -39.07,306.66 -34.29,628.41 -7.93,949.28 13.64,160.68 33.36,321.65 58.54,482.16 12.35,80.27 26.66,160.21 41.85,240.16l24.09 119.38 12.87 59.36 6.75 29.39 3.5 14.67 0.83 4.38c-6.65,-24.05 -36.35,-51.38 -61.06,-55.76zm-67.9 193.1c-26.3,-9.37 -57.44,-41.54 -65.58,-70.58l-3.81 -10.25 -5.66 -15.13 -10.9 -29.86 -21.26 -59.72 -40.21 -119.74c-25.95,-79.9 -51.07,-160.31 -74.24,-241.29 -46.64,-161.91 -88.28,-325.41 -123.55,-491.27 -69.81,-331.94 -119.44,-672.08 -119.75,-1025.12 3.04,-350.78 45.05,-725.35 237.84,-1084.83 96.32,-177.56 237.02,-345.12 411.95,-470.53 44.63,-29.35 88.7,-59.86 135.49,-87.05 49.37,-24.66 97.09,-49.78 149.34,-72.13 59.26,-18.74 111.41,-41.54 179.1,-52.66 67.29,-10.6 134.68,-22.96 213.7,-8.03 74.39,6.02 153.77,37.68 225.94,69.18 68.83,40.52 137.14,85.45 184.86,140.43 56.27,53.39 87.06,109.6 123.96,166.33 26.16,54.68 55.7,112.08 71.1,164.99 69.5,215.65 76.65,410.04 70.68,596.8 -16.17,372.26 -103.68,714.86 -220.59,1044.18 -120.83,327.66 -277.69,639.79 -477.89,924.37 -101.83,141.04 -210.55,277.42 -336.21,399.06 -63.84,59.87 -126.28,120.83 -197.43,172.78l-52.2 39.94 -26 19.92c-12.04,8.55 -27.54,18.74 -42.31,27.5 -60.49,37.47 -132.92,59.66 -186.36,72.69z"/>
   <polygon class="fil0" points="3468.75,3843.55 1153.14,4657.55 1012.44,4086.48 3441.11,3730.91 "/>
   <polygon class="fil0" points="3745.36,3583.73 5531.04,1899.72 5891.5,2364.63 3816.5,3675.31 "/>
   <polygon class="fil1" points="7072.29,3082.21 7883.36,5177.29 7964.39,5387.23 8408.86,6533.94 8489.53,6741.25 9173.55,8509.48 9253.39,8716.02 9304.1,8847.3 5745.6,10568.48 5425.97,10724.14 4123.63,11353.85 3297.07,9949.38 3082.97,9586.59 2208.33,8101.29 2025,7788.24 1459.14,6829.02 1310.47,6574.71 987.89,6027.58 2504.54,5293.17 2831.8,5134.72 "/>
   <path class="fil2" d="M5745.6 10568.48l-319.63 155.65c-737.4,-171.42 -1455.45,-431.98 -2128.91,-774.75l-214.1 -362.79c826.61,463.64 1731.32,795.73 2662.63,981.89z"/>
   <path class="fil2" d="M9173.55 8509.48l79.84 206.54c-2327.82,480.81 -4832,260.51 -7045.07,-614.72l-183.32 -313.05c2225.79,944.77 4778.26,1203.15 7148.55,721.23z"/>
   <path class="fil2" d="M8408.86 6533.94l80.67 207.31c-2309.33,487.83 -4707.67,518.97 -7030.39,87.77l-148.67 -254.3c2340.53,463.16 4765.13,446.99 7098.39,-40.77z"/>
   <path class="fil2" d="M7883.36 5177.29l81.03 209.94c-1806.58,314.18 -3661.2,283.08 -5459.85,-94.06l327.26 -158.45c1667.78,315.05 3381.04,329.57 5051.56,42.57z"/>
   <polygon class="fil1" points="7190.34,1995.42 7727.99,3108.1 7556.52,3191.3 7289.44,3320.62 5643.67,4116.54 5367.95,4250.81 3734.91,5041.64 3452.74,5177.9 1833.29,5961.53 1540.11,6103.21 601.43,6557.66 62.03,5444.73 232.06,5362.98 447.3,5257.64 2187.37,4416.1 2402.3,4312.42 4146.95,3467.59 4360.08,3365.15 6109.01,2518.71 6317.91,2417.96 "/>
   <path class="fil2" d="M1833.29 5961.53l-293.18 141.68c-480.61,-156.35 -926.58,-408.49 -1308.05,-740.23l215.24 -105.33c403.5,332.05 878.36,574 1386,703.89z"/>
   <path class="fil2" d="M3734.91 5041.64l-282.17 136.26c-466.86,-169.11 -898.27,-427.69 -1265.37,-761.8l214.92 -103.68c386.66,334.77 843.09,584.82 1332.61,729.22z"/>
   <path class="fil2" d="M5643.67 4116.54l-275.72 134.27c-451.58,-180.14 -867.95,-445.71 -1221,-783.22l213.13 -102.44c369.68,337.65 809.36,594.33 1283.6,751.39z"/>
   <path class="fil2" d="M7556.52 3191.3l-267.08 129.32c-439.38,-189.25 -841.74,-462.14 -1180.43,-801.9l208.9 -100.75c355.15,339.98 778.79,604.49 1238.61,773.34z"/>
  </g>
 </g>
</svg>
