<?xml version="1.0" encoding="UTF-8"?>
<!DOCTYPE svg PUBLIC "-//W3C//DTD SVG 1.1//EN" "http://www.w3.org/Graphics/SVG/1.1/DTD/svg11.dtd">
<!-- Creator: CorelDRAW 2018 (64 Bit Versão de avaliação) -->
<svg xmlns="http://www.w3.org/2000/svg" xml:space="preserve" width="347.5mm" height="206.534mm" version="1.1" style="shape-rendering:geometricPrecision; text-rendering:geometricPrecision; image-rendering:optimizeQuality; fill-rule:evenodd; clip-rule:evenodd"
viewBox="0 0 17828.15 10596.06"
 xmlns:xlink="http://www.w3.org/1999/xlink">
 <defs>
  <style type="text/css">
   <![CDATA[
    .fil0 {fill:#fff0f9;fill-rule:nonzero}
   ]]>
  </style>
 </defs>
 <g id="Camada_x0020_1">
  <metadata id="CorelCorpID_0Corel-Layer"/>
  <path class="fil0" d="M13508.32 10596.06l-13508.32 0 0 -9831.78c637.88,-183.13 1283.21,-344.75 1922.41,-503.46 525.55,-130.47 1071.17,-260.82 1607.09,-260.82 250.54,0 499.08,28.55 742.3,98.85 510.8,147.74 951.37,468 1428.27,703.17 476.93,235.15 1009.38,232.61 1539.82,270.02 69.95,4.93 139.76,7.2 209.52,7.2 572.01,0 1137.77,-154.09 1701.32,-268.51 333.5,-67.7 678.96,-120.76 1019,-120.76 304.69,0 605.05,42.62 888.26,155.51 599.34,238.89 1079.52,885.52 927.09,1512.46 -143.38,589.97 -741.35,925.34 -1218.83,1300.46 -477.41,375.12 -896.23,1049.17 -559.46,1554.41 212.29,318.48 608.33,395.47 1009,395.44 142.2,0 285.04,-9.71 420.37,-21.72 849.13,-75.51 1701.44,-113.27 2553.94,-113.27 748.53,0 1497.25,29.12 2243.53,87.36 484.39,37.83 1040.72,132.32 1284.52,552.66 169.18,291.55 128.57,668.58 -22.48,969.94 -151.11,301.33 -398.07,542.09 -644.97,771.6 -1095.2,1017.83 -2282.52,1936.2 -3542.38,2741.24z"/>
 </g>
</svg>
