<?xml version="1.0" encoding="UTF-8"?>
<!DOCTYPE svg PUBLIC "-//W3C//DTD SVG 1.1//EN" "http://www.w3.org/Graphics/SVG/1.1/DTD/svg11.dtd">
<!-- Creator: CorelDRAW 2018 (64 Bit Versão de avaliação) -->
<svg xmlns="http://www.w3.org/2000/svg" xml:space="preserve" width="353.052mm" height="163.215mm" version="1.1" style="shape-rendering:geometricPrecision; text-rendering:geometricPrecision; image-rendering:optimizeQuality; fill-rule:evenodd; clip-rule:evenodd"
viewBox="0 0 433185.68 200260.22"
 xmlns:xlink="http://www.w3.org/1999/xlink">
 <defs>
  <style type="text/css">
   <![CDATA[
    .fil0 {fill:#FCD6D8;fill-rule:nonzero}
   ]]>
  </style>
 </defs>
 <g id="Camada_x0020_1">
  <metadata id="CorelCorpID_0Corel-Layer"/>
  <path class="fil0" d="M308196.89 200260.22c-1937.51,0 -3863.62,-34.48 -5795.37,-100.86 -10514.43,-360.85 -21425.42,-4417.6 -27572.07,-12952.68 -5092.92,-7069.95 -6582.84,-16613.97 -13018.32,-22484.06 -5597.09,-5109.37 -13415,-6146.65 -21193.16,-6146.65 -2265.98,0 -4526.31,87.24 -6724.43,188.1 -17176.53,788.58 -34358.71,1182.8 -51552.3,1182.8 -32104.02,0 -64217.13,-1374.82 -96204.47,-4120.18 -7929.44,-678.64 -16500.1,-1728.44 -22257.07,-7229.21 -8103.31,-7752.15 -7029.21,-21656.46 -683.67,-30904.17 6340.88,-9249.42 16556.18,-14948.47 26399.21,-20322.37 17197.02,-9391.63 34390,-18782.03 51586.9,-28171.94 4601.15,-2513.09 9955.3,-6641.24 8592.25,-11700.06 -1246.85,-4621.03 -7077.43,-5896.84 -11842.88,-6376.09 -35437.35,-3565.59 -70580.22,-9998.37 -104984.33,-19217.11 -13970.08,-3743.5 -30197.18,-10476.4 -32650.15,-24731.5 -421.96,-2452.97 -380.12,-4847.04 35.7,-7174.24l432852.93 0 0 167963.56c-32313.71,12421.89 -65567.78,22391.79 -99388.34,29767.74 -8384.28,1829.91 -17000.83,2528.92 -25600.45,2528.92z"/>
 </g>
</svg>
