<?xml version="1.0" encoding="UTF-8"?>
<!DOCTYPE svg PUBLIC "-//W3C//DTD SVG 1.1//EN" "http://www.w3.org/Graphics/SVG/1.1/DTD/svg11.dtd">
<!-- Creator: CorelDRAW 2018 (64 Bit Versão de avaliação) -->
<svg xmlns="http://www.w3.org/2000/svg" xml:space="preserve" width="40.0681mm" height="31.6949mm" version="1.1" style="shape-rendering:geometricPrecision; text-rendering:geometricPrecision; image-rendering:optimizeQuality; fill-rule:evenodd; clip-rule:evenodd"
viewBox="0 0 720.58 570"
 xmlns:xlink="http://www.w3.org/1999/xlink">
 <defs>
  <style type="text/css">
   <![CDATA[
    .fil0 {fill:white}
   ]]>
  </style>
 </defs>
 <g id="Camada_x0020_1">
  <metadata id="CorelCorpID_0Corel-Layer"/>
  <g id="_1759228052720">
   <path class="fil0" d="M393.74 507.25c69.05,-77.82 138.3,-158.52 207.35,-236.34 39.83,0 79.67,0 119.5,0 -85.47,91.72 -171.68,182.55 -257.15,274.27 -27.95,28.87 -74.06,40.59 -120.26,-9.89 -22.24,-24.59 -69.8,-78.65 -115.22,-130.2l82.11 0c20.35,24.89 47.09,57.57 83.68,102.16zm-176.79 -114.65l-19.19 -21.77 84.32 0 17.77 21.77 -82.9 0zm-30.22 -34.26c-6.8,-7.7 -13.31,-15.07 -19.41,-21.95l86.61 0c5.22,6.37 11,13.44 17.95,21.95l-85.15 0zm-30.49 -34.44c-8.77,-9.86 -16.3,-18.29 -22.1,-24.71 24.31,0 64.61,0 88.92,0 7.7,9.17 14.03,16.76 20.6,24.71l-87.42 0z"/>
   <g>
    <ellipse class="fil0" cx="368.66" cy="290.08" rx="38.12" ry="37.98"/>
    <path class="fil0" d="M326.84 62.75c-69.05,77.82 -138.3,158.52 -207.35,236.34 -39.83,0 -79.67,0 -119.5,0 85.47,-91.72 171.68,-182.55 257.15,-274.27 27.95,-28.87 74.06,-40.59 120.26,9.89 22.24,24.59 69.8,78.65 115.22,130.2l-82.11 0c-20.35,-24.89 -47.09,-57.57 -83.68,-102.16zm176.79 114.65l19.19 21.77 -84.32 0 -17.77 -21.77 82.9 0zm30.22 34.26c6.8,7.7 13.31,15.07 19.41,21.95l-86.61 0c-5.22,-6.37 -11,-13.44 -17.95,-21.95l85.15 0zm30.49 34.44c8.77,9.86 16.3,18.29 22.1,24.71 -24.31,0 -64.61,0 -88.92,0 -7.7,-9.17 -14.03,-16.76 -20.6,-24.71l87.42 0z"/>
   </g>
  </g>
 </g>
</svg>
